<svg width="1585" height="11001" viewBox="0 0 1585 11001" fill="none" xmlns="http://www.w3.org/2000/svg">
<g clip-path="url(#clip0_302_426)">
<path d="M1353 1115H0" stroke="#434343" stroke-width="1.22713"/>
<path d="M330.712 1238.18V509.26" stroke="#434343" stroke-width="1.22713"/>
<path d="M1352.91 1924.14V1045.52" stroke="#434343" stroke-width="1.22713"/>
<path d="M1583 1046.13H2.4541" stroke="#434343" stroke-width="1.22713"/>
<path d="M1583 1238.79H0" stroke="#434343" stroke-width="1.22713"/>
<path d="M447.903 1814.31H0.000244141" stroke="#434343" stroke-width="1.22713"/>
<path d="M1583 1922.3H0" stroke="#434343" stroke-width="1.22713"/>
<path d="M1583 2452.42H0" stroke="#434343" stroke-width="1.22713"/>
<path d="M730.757 3346.39V1921.69" stroke="#434343" stroke-width="1.22713"/>
<path d="M1260.88 3346.39V2451.81" stroke="#434343" stroke-width="1.22713"/>
<path d="M0 3054H1583" stroke="#434343" stroke-width="1.22713"/>
<path d="M447 2452L447 1814" stroke="#434343" stroke-width="1.22713"/>
<path d="M331.326 509.873H0.00012207" stroke="#434343" stroke-width="1.22713"/>
<path d="M0.748169 0L0.748315 3346.39" stroke="#434343" stroke-width="1.49645"/>
<path d="M1583.61 0V3346.39" stroke="#434343" stroke-width="1.22713"/>
<path d="M1353 1115H0" stroke="#434343" stroke-width="1.22713"/>
<path d="M330.712 1238.18V509.26" stroke="#434343" stroke-width="1.22713"/>
<path d="M1352.91 1924.14V1045.52" stroke="#434343" stroke-width="1.22713"/>
<path d="M1583 1046.13H2.4541" stroke="#434343" stroke-width="1.22713"/>
<path d="M1583 1238.79H0" stroke="#434343" stroke-width="1.22713"/>
<path d="M447.903 1814.31H0.000244141" stroke="#434343" stroke-width="1.22713"/>
<path d="M1583 1922.3H0" stroke="#434343" stroke-width="1.22713"/>
<path d="M1583 2452.42H0" stroke="#434343" stroke-width="1.22713"/>
<path d="M730.757 3346.39V1921.69" stroke="#434343" stroke-width="1.22713"/>
<path d="M1260.88 3346.39V2451.81" stroke="#434343" stroke-width="1.22713"/>
<path d="M0 3054H1583" stroke="#434343" stroke-width="1.22713"/>
<path d="M447 2452L447 1814" stroke="#434343" stroke-width="1.22713"/>
<path d="M331.326 509.873H0.00012207" stroke="#434343" stroke-width="1.22713"/>
<path d="M0.748169 0L0.748315 3346.39" stroke="#434343" stroke-width="1.49645"/>
<path d="M1583.61 0V3346.39" stroke="#434343" stroke-width="1.22713"/>
</g>
<g clip-path="url(#clip1_302_426)">
<path d="M232 5286H1585" stroke="#434343" stroke-width="1.22713"/>
<path d="M1254.29 5162.82V5891.74" stroke="#434343" stroke-width="1.22713"/>
<path d="M232.09 4476.86L232.09 5355.48" stroke="#434343" stroke-width="1.22713"/>
<path d="M2 5354.87H1582.55" stroke="#434343" stroke-width="1.22713"/>
<path d="M2 5162.21H1585" stroke="#434343" stroke-width="1.22713"/>
<path d="M1137.1 4586.69H1585" stroke="#434343" stroke-width="1.22713"/>
<path d="M2 4478.7H1585" stroke="#434343" stroke-width="1.22713"/>
<path d="M2 3948.58H1585" stroke="#434343" stroke-width="1.22713"/>
<path d="M854.243 3054.61L854.243 4479.31" stroke="#434343" stroke-width="1.22713"/>
<path d="M324.12 3054.61L324.12 3949.19" stroke="#434343" stroke-width="1.22713"/>
<path d="M1585 3347H2.00005" stroke="#434343" stroke-width="1.22713"/>
<path d="M1138 3949L1138 4587" stroke="#434343" stroke-width="1.22713"/>
<path d="M1253.67 5891.13H1585" stroke="#434343" stroke-width="1.22713"/>
<path d="M1584.25 6401L1584.25 3054.61" stroke="#434343" stroke-width="1.49645"/>
<path d="M1.39001 6401L1.39001 3054.61" stroke="#434343" stroke-width="1.22713"/>
<path d="M232 5286H1585" stroke="#434343" stroke-width="1.22713"/>
<path d="M1254.29 5162.82V5891.74" stroke="#434343" stroke-width="1.22713"/>
<path d="M232.09 4476.86L232.09 5355.48" stroke="#434343" stroke-width="1.22713"/>
<path d="M2 5354.87H1582.55" stroke="#434343" stroke-width="1.22713"/>
<path d="M2 5162.21H1585" stroke="#434343" stroke-width="1.22713"/>
<path d="M1137.1 4586.69H1585" stroke="#434343" stroke-width="1.22713"/>
<path d="M2 4478.7H1585" stroke="#434343" stroke-width="1.22713"/>
<path d="M2 3948.58H1585" stroke="#434343" stroke-width="1.22713"/>
<path d="M854.243 3054.61L854.243 4479.31" stroke="#434343" stroke-width="1.22713"/>
<path d="M324.12 3054.61L324.12 3949.19" stroke="#434343" stroke-width="1.22713"/>
<path d="M1585 3347H2.00005" stroke="#434343" stroke-width="1.22713"/>
<path d="M1138 3949L1138 4587" stroke="#434343" stroke-width="1.22713"/>
<path d="M1253.67 5891.13H1585" stroke="#434343" stroke-width="1.22713"/>
<path d="M1584.25 6401L1584.25 3054.61" stroke="#434343" stroke-width="1.49645"/>
<path d="M1.39001 6401L1.39001 3054.61" stroke="#434343" stroke-width="1.22713"/>
</g>
<g clip-path="url(#clip2_302_426)">
<path d="M232 7586H1585" stroke="#434343" stroke-width="1.22713"/>
<path d="M1254.29 7462.82V8191.74" stroke="#434343" stroke-width="1.22713"/>
<path d="M232.09 6776.86L232.09 7655.48" stroke="#434343" stroke-width="1.22713"/>
<path d="M2 7654.87H1582.55" stroke="#434343" stroke-width="1.22713"/>
<path d="M2 7462.21H1585" stroke="#434343" stroke-width="1.22713"/>
<path d="M1137.1 6886.69H1585" stroke="#434343" stroke-width="1.22713"/>
<path d="M2 6778.7H1585" stroke="#434343" stroke-width="1.22713"/>
<path d="M2 6248.58H1585" stroke="#434343" stroke-width="1.22713"/>
<path d="M854.243 5354.61L854.243 6779.31" stroke="#434343" stroke-width="1.22713"/>
<path d="M324.12 5354.61L324.12 6249.19" stroke="#434343" stroke-width="1.22713"/>
<path d="M1585 5647H2.00005" stroke="#434343" stroke-width="1.22713"/>
<path d="M1138 6249L1138 6887" stroke="#434343" stroke-width="1.22713"/>
<path d="M1253.67 8191.13H1585" stroke="#434343" stroke-width="1.22713"/>
<path d="M1584.25 8701L1584.25 5354.61" stroke="#434343" stroke-width="1.49645"/>
<path d="M1.39001 8701L1.39001 5354.61" stroke="#434343" stroke-width="1.22713"/>
<path d="M232 7586H1585" stroke="#434343" stroke-width="1.22713"/>
<path d="M1254.29 7462.82V8191.74" stroke="#434343" stroke-width="1.22713"/>
<path d="M232.09 6776.86L232.09 7655.48" stroke="#434343" stroke-width="1.22713"/>
<path d="M2 7654.87H1582.55" stroke="#434343" stroke-width="1.22713"/>
<path d="M2 7462.21H1585" stroke="#434343" stroke-width="1.22713"/>
<path d="M1137.1 6886.69H1585" stroke="#434343" stroke-width="1.22713"/>
<path d="M2 6778.7H1585" stroke="#434343" stroke-width="1.22713"/>
<path d="M2 6248.58H1585" stroke="#434343" stroke-width="1.22713"/>
<path d="M854.243 5354.61L854.243 6779.31" stroke="#434343" stroke-width="1.22713"/>
<path d="M324.12 5354.61L324.12 6249.19" stroke="#434343" stroke-width="1.22713"/>
<path d="M1585 5647H2.00005" stroke="#434343" stroke-width="1.22713"/>
<path d="M1138 6249L1138 6887" stroke="#434343" stroke-width="1.22713"/>
<path d="M1253.67 8191.13H1585" stroke="#434343" stroke-width="1.22713"/>
<path d="M1584.25 8701L1584.25 5354.61" stroke="#434343" stroke-width="1.49645"/>
<path d="M1.39001 8701L1.39001 5354.61" stroke="#434343" stroke-width="1.22713"/>
</g>
<g clip-path="url(#clip3_302_426)">
<path d="M232 9886H1585" stroke="#434343" stroke-width="1.22713"/>
<path d="M1254.29 9762.82V10491.7" stroke="#434343" stroke-width="1.22713"/>
<path d="M232.09 9076.86L232.09 9955.48" stroke="#434343" stroke-width="1.22713"/>
<path d="M2 9954.87H1582.55" stroke="#434343" stroke-width="1.22713"/>
<path d="M2 9762.21H1585" stroke="#434343" stroke-width="1.22713"/>
<path d="M1137.1 9186.69H1585" stroke="#434343" stroke-width="1.22713"/>
<path d="M2 9078.7H1585" stroke="#434343" stroke-width="1.22713"/>
<path d="M2 8548.58H1585" stroke="#434343" stroke-width="1.22713"/>
<path d="M854.243 7654.61L854.243 9079.31" stroke="#434343" stroke-width="1.22713"/>
<path d="M324.12 7654.61L324.12 8549.19" stroke="#434343" stroke-width="1.22713"/>
<path d="M1585 7947H2.00005" stroke="#434343" stroke-width="1.22713"/>
<path d="M1138 8549L1138 9187" stroke="#434343" stroke-width="1.22713"/>
<path d="M1253.67 10491.1H1585" stroke="#434343" stroke-width="1.22713"/>
<path d="M1584.25 11001L1584.25 7654.61" stroke="#434343" stroke-width="1.49645"/>
<path d="M1.39001 11001L1.39001 7654.61" stroke="#434343" stroke-width="1.22713"/>
<path d="M232 9886H1585" stroke="#434343" stroke-width="1.22713"/>
<path d="M1254.29 9762.82V10491.7" stroke="#434343" stroke-width="1.22713"/>
<path d="M232.09 9076.86L232.09 9955.48" stroke="#434343" stroke-width="1.22713"/>
<path d="M2 9954.87H1582.55" stroke="#434343" stroke-width="1.22713"/>
<path d="M2 9762.21H1585" stroke="#434343" stroke-width="1.22713"/>
<path d="M1137.1 9186.69H1585" stroke="#434343" stroke-width="1.22713"/>
<path d="M2 9078.7H1585" stroke="#434343" stroke-width="1.22713"/>
<path d="M2 8548.58H1585" stroke="#434343" stroke-width="1.22713"/>
<path d="M854.243 7654.61L854.243 9079.31" stroke="#434343" stroke-width="1.22713"/>
<path d="M324.12 7654.61L324.12 8549.19" stroke="#434343" stroke-width="1.22713"/>
<path d="M1585 7947H2.00005" stroke="#434343" stroke-width="1.22713"/>
<path d="M1138 8549L1138 9187" stroke="#434343" stroke-width="1.22713"/>
<path d="M1253.67 10491.1H1585" stroke="#434343" stroke-width="1.22713"/>
<path d="M1584.25 11001L1584.25 7654.61" stroke="#434343" stroke-width="1.49645"/>
<path d="M1.39001 11001L1.39001 7654.61" stroke="#434343" stroke-width="1.22713"/>
</g>
<defs>
<clipPath id="clip0_302_426">
<rect width="1585" height="3347" fill="white"/>
</clipPath>
<clipPath id="clip1_302_426">
<rect width="1585" height="3347" fill="white" transform="matrix(-1 0 0 -1 1585 6401)"/>
</clipPath>
<clipPath id="clip2_302_426">
<rect width="1585" height="3347" fill="white" transform="matrix(-1 0 0 -1 1585 8701)"/>
</clipPath>
<clipPath id="clip3_302_426">
<rect width="1585" height="3347" fill="white" transform="matrix(-1 0 0 -1 1585 11001)"/>
</clipPath>
</defs>
</svg>
