<svg width="1518" height="787" viewBox="0 0 1518 787" fill="none" xmlns="http://www.w3.org/2000/svg">
<path fill-rule="evenodd" clip-rule="evenodd" d="M217.323 337.621C217.396 316.474 233.827 299.354 254.085 299.354C233.782 299.354 217.323 282.158 217.323 260.945C217.249 282.093 200.818 299.212 180.56 299.212C200.864 299.212 217.323 316.409 217.323 337.621Z" fill="white"/>
<path fill-rule="evenodd" clip-rule="evenodd" d="M1389.72 76.6758C1389.79 55.5284 1406.23 38.409 1426.48 38.409C1406.18 38.409 1389.72 21.2125 1389.72 0C1389.65 21.1474 1373.22 38.2669 1352.96 38.2669C1373.26 38.2669 1389.72 55.4634 1389.72 76.6758Z" fill="white"/>
<path fill-rule="evenodd" clip-rule="evenodd" d="M1481.24 786.546C1481.31 765.399 1497.74 748.279 1518 748.279C1497.7 748.279 1481.24 731.083 1481.24 709.87C1481.16 731.018 1464.73 748.137 1444.47 748.137C1464.78 748.137 1481.24 765.333 1481.24 786.546Z" fill="white"/>
<path fill-rule="evenodd" clip-rule="evenodd" d="M1481.24 279.496C1481.31 258.349 1497.74 241.229 1518 241.229C1497.7 241.229 1481.24 224.033 1481.24 202.82C1481.16 223.967 1464.73 241.087 1444.47 241.087C1464.78 241.087 1481.24 258.283 1481.24 279.496Z" fill="white"/>
<path fill-rule="evenodd" clip-rule="evenodd" d="M36.763 619.59C36.8365 598.443 53.2675 581.324 73.5259 581.324C53.2223 581.324 36.763 564.127 36.763 542.915C36.6898 564.062 20.2584 581.181 5.84126e-05 581.181C20.304 581.181 36.763 598.378 36.763 619.59Z" fill="white"/>
<path d="M1156.94 223.844L1159.83 254.09L1183.61 234.711L1163.91 258.106L1194.66 260.945L1163.91 263.785L1183.61 287.18L1159.83 267.801L1156.94 298.046L1154.05 267.801L1130.27 287.18L1149.97 263.785L1119.22 260.945L1149.97 258.106L1130.27 234.711L1154.05 254.09L1156.94 223.844Z" fill="white"/>
<path d="M126.763 74.2024L129.649 104.448L153.434 85.0691L133.732 108.464L164.482 111.304L133.732 114.143L153.434 137.538L129.649 118.159L126.763 148.405L123.876 118.159L100.091 137.538L119.793 114.143L89.043 111.304L119.793 108.464L100.091 85.0691L123.876 104.448L126.763 74.2024Z" fill="white"/>
</svg>
