<svg width="1134" height="579" viewBox="0 0 1134 579" fill="none" xmlns="http://www.w3.org/2000/svg">
<g opacity="0.8">
<path fill-rule="evenodd" clip-rule="evenodd" d="M789.726 381.93C789.667 364.831 776.381 350.988 760 350.988C776.417 350.988 789.726 337.083 789.726 319.93C789.786 337.03 803.072 350.873 819.453 350.873C803.035 350.873 789.726 364.778 789.726 381.93Z" fill="white"/>
<path fill-rule="evenodd" clip-rule="evenodd" d="M154.726 381.93C154.786 364.831 168.072 350.988 184.453 350.988C168.035 350.988 154.726 337.083 154.726 319.93C154.667 337.03 141.381 350.873 125 350.873C141.418 350.873 154.726 364.778 154.726 381.93Z" fill="white"/>
<path fill-rule="evenodd" clip-rule="evenodd" d="M1103.73 248.93C1103.79 231.831 1117.07 217.988 1133.45 217.988C1117.04 217.988 1103.73 204.083 1103.73 186.93C1103.67 204.03 1090.38 217.873 1074 217.873C1090.42 217.873 1103.73 231.778 1103.73 248.93Z" fill="white"/>
<path fill-rule="evenodd" clip-rule="evenodd" d="M971.726 578.93C971.786 561.831 985.072 547.988 1001.45 547.988C985.035 547.988 971.726 534.083 971.726 516.93C971.667 534.03 958.381 547.873 942 547.873C958.418 547.873 971.726 561.778 971.726 578.93Z" fill="white"/>
<path fill-rule="evenodd" clip-rule="evenodd" d="M1035.73 118C1035.79 100.9 1049.07 87.0574 1065.45 87.0574C1049.04 87.0574 1035.73 73.1524 1035.73 56C1035.67 73.0998 1022.38 86.9426 1006 86.9426C1022.42 86.9426 1035.73 100.848 1035.73 118Z" fill="white"/>
<path fill-rule="evenodd" clip-rule="evenodd" d="M31.7264 449C31.7859 431.9 45.072 418.057 61.4529 418.057C45.0354 418.057 31.7264 404.152 31.7264 387C31.6673 404.1 18.3809 417.943 1.99999 417.943C18.4177 417.943 31.7264 431.848 31.7264 449Z" fill="white"/>
<path d="M980.5 312L982.834 336.457L1002.07 320.787L986.136 339.704L1011 342L986.136 344.296L1002.07 363.213L982.834 347.543L980.5 372L978.166 347.543L958.933 363.213L974.864 344.296L950 342L974.864 339.704L958.933 320.787L978.166 336.457L980.5 312Z" fill="white"/>
<path d="M30.5 0L32.8344 24.4567L52.0668 8.7868L36.1357 27.7039L61 30L36.1357 32.2961L52.0668 51.2132L32.8344 35.5433L30.5 60L28.1656 35.5433L8.93324 51.2132L24.8643 32.2961L0 30L24.8643 27.7039L8.93324 8.7868L28.1656 24.4567L30.5 0Z" fill="white"/>
</g>
</svg>
